<?xml version="1.0" ?>

<!-- Uploaded to: SVG Repo, www.svgrepo.com, Generator: SVG Repo Mixer Tools -->
<svg fill="#000000" width="800px" height="800px" viewBox="0 0 512 512" version="1.1" xml:space="preserve" xmlns="http://www.w3.org/2000/svg" xmlns:xlink="http://www.w3.org/1999/xlink">

<g id="padlock-key-heart-love-valentine">

<path d="M367.92,181.76c-5.12-2.8-10.48-5.12-15.92-6.96V168c0-52.96-43.04-96-96-96s-96,43.04-96,96v6.88   c-17.12,5.6-32.88,16.24-45.12,32c-29.28,37.92-23.44,92.4,10.32,126.4l92.88,93.04c20.96,20.96,54.88,20.96,75.84,0   c101.76-101.92,102.16-100,111.92-119.84C428.16,261.04,413.12,206.8,367.92,181.76z M272,307.68V360h-32v-52.32   c-9.6-5.52-16-15.84-16-27.68c0-17.68,14.32-32,32-32c17.68,0,32,14.32,32,32C288,291.84,281.6,302.16,272,307.68z M312,170.64   c-20.48,2.32-40.24,11.28-56,27.04c-15.68-15.76-35.52-24.72-56-27.04V168c0-30.88,25.12-56,56-56s56,25.12,56,56V170.64z    M358.32,303.44c-3.105,3.105-8.255,3.105-11.36,0c-3.12-3.12-3.12-8.16,0-11.28c17.36-17.44,17.36-45.76,0-63.12   c-3.12-3.12-3.12-8.24,0-11.36c3.12-3.12,8.24-3.12,11.36,0.08C381.84,241.36,381.84,279.84,358.32,303.44z"/>

</g>

<g id="Layer_1"/>

</svg>